<mxfile host="app.diagrams.net" modified="2020-08-14T07:22:59.175Z" agent="5.0 (Macintosh; Intel Mac OS X 10_15_6) AppleWebKit/605.1.15 (KHTML, like Gecko) Version/13.1.2 Safari/605.1.15" etag="OYslBOD82c0pe75YVVxe" version="13.6.2" type="github">
  <diagram id="dgdlfLjW2s20BMhnikNt" name="Page-1">
    <mxGraphModel dx="4392" dy="3274" grid="1" gridSize="10" guides="1" tooltips="1" connect="1" arrows="1" fold="1" page="1" pageScale="1" pageWidth="827" pageHeight="1169" math="0" shadow="0">
      <root>
        <mxCell id="0" />
        <mxCell id="1" parent="0" />
        <mxCell id="1rJ9CaBwOhFMW-6hmWRg-27" value="Personal FileCoin Storage (pStorage)" style="outlineConnect=0;fontColor=#232F3E;gradientColor=none;fillColor=#277116;strokeColor=none;dashed=0;verticalLabelPosition=bottom;verticalAlign=top;align=center;html=1;fontSize=12;fontStyle=0;aspect=fixed;pointerEvents=1;shape=mxgraph.aws4.bucket;" parent="1" vertex="1">
          <mxGeometry x="289.04" y="-420" width="201.92" height="210" as="geometry" />
        </mxCell>
        <mxCell id="1rJ9CaBwOhFMW-6hmWRg-29" value="EC2 InstanceKeys" style="text;html=1;strokeColor=none;fillColor=none;align=center;verticalAlign=middle;whiteSpace=wrap;rounded=0;" parent="1" vertex="1">
          <mxGeometry x="329.04" y="-315" width="40" height="20" as="geometry" />
        </mxCell>
        <mxCell id="1rJ9CaBwOhFMW-6hmWRg-32" value="Crypto PrivateKeys" style="text;html=1;strokeColor=none;fillColor=none;align=center;verticalAlign=middle;whiteSpace=wrap;rounded=0;" parent="1" vertex="1">
          <mxGeometry x="399.04" y="-305" width="40" height="20" as="geometry" />
        </mxCell>
        <mxCell id="1rJ9CaBwOhFMW-6hmWRg-33" value="Passwords" style="text;html=1;strokeColor=none;fillColor=none;align=center;verticalAlign=middle;whiteSpace=wrap;rounded=0;" parent="1" vertex="1">
          <mxGeometry x="359.04" y="-265" width="40" height="20" as="geometry" />
        </mxCell>
        <mxCell id="1rJ9CaBwOhFMW-6hmWRg-38" value="Organisation FileCoin Storage (cStorage)" style="outlineConnect=0;fontColor=#232F3E;gradientColor=none;fillColor=#277116;strokeColor=none;dashed=0;verticalLabelPosition=bottom;verticalAlign=top;align=center;html=1;fontSize=12;fontStyle=0;aspect=fixed;pointerEvents=1;shape=mxgraph.aws4.bucket;" parent="1" vertex="1">
          <mxGeometry x="-70.96" y="-420" width="201.92" height="210" as="geometry" />
        </mxCell>
        <mxCell id="1rJ9CaBwOhFMW-6hmWRg-39" value="EC2 InstanceKeys" style="text;html=1;strokeColor=none;fillColor=none;align=center;verticalAlign=middle;whiteSpace=wrap;rounded=0;" parent="1" vertex="1">
          <mxGeometry x="-30.96" y="-315" width="40" height="20" as="geometry" />
        </mxCell>
        <mxCell id="1rJ9CaBwOhFMW-6hmWRg-40" value="Crypto PrivateKeys" style="text;html=1;strokeColor=none;fillColor=none;align=center;verticalAlign=middle;whiteSpace=wrap;rounded=0;" parent="1" vertex="1">
          <mxGeometry x="39.04" y="-305" width="40" height="20" as="geometry" />
        </mxCell>
        <mxCell id="1rJ9CaBwOhFMW-6hmWRg-41" value="Passwords" style="text;html=1;strokeColor=none;fillColor=none;align=center;verticalAlign=middle;whiteSpace=wrap;rounded=0;" parent="1" vertex="1">
          <mxGeometry x="-0.96" y="-265" width="40" height="20" as="geometry" />
        </mxCell>
        <mxCell id="1rJ9CaBwOhFMW-6hmWRg-45" value="&amp;lt;&amp;lt; Interface &amp;gt;&amp;gt;&lt;br&gt;Repository" style="rounded=0;whiteSpace=wrap;html=1;" parent="1" vertex="1">
          <mxGeometry x="140" y="540" width="120" height="60" as="geometry" />
        </mxCell>
        <mxCell id="1rJ9CaBwOhFMW-6hmWRg-85" style="edgeStyle=orthogonalEdgeStyle;rounded=0;orthogonalLoop=1;jettySize=auto;html=1;entryX=0;entryY=0.5;entryDx=0;entryDy=0;endArrow=classic;endFill=1;exitX=0.5;exitY=0;exitDx=0;exitDy=0;" parent="1" source="1rJ9CaBwOhFMW-6hmWRg-46" target="1rJ9CaBwOhFMW-6hmWRg-84" edge="1">
          <mxGeometry relative="1" as="geometry" />
        </mxCell>
        <mxCell id="1rJ9CaBwOhFMW-6hmWRg-92" style="edgeStyle=orthogonalEdgeStyle;rounded=0;orthogonalLoop=1;jettySize=auto;html=1;entryX=0;entryY=0.5;entryDx=0;entryDy=0;endArrow=classic;endFill=1;dashed=1;" parent="1" source="1rJ9CaBwOhFMW-6hmWRg-46" target="1rJ9CaBwOhFMW-6hmWRg-45" edge="1">
          <mxGeometry relative="1" as="geometry">
            <Array as="points">
              <mxPoint x="21" y="570" />
            </Array>
          </mxGeometry>
        </mxCell>
        <mxCell id="1rJ9CaBwOhFMW-6hmWRg-46" value="Common Storage Repository" style="rounded=0;whiteSpace=wrap;html=1;" parent="1" vertex="1">
          <mxGeometry x="-39.04000000000001" y="260.2" width="120" height="60" as="geometry" />
        </mxCell>
        <mxCell id="1rJ9CaBwOhFMW-6hmWRg-94" style="edgeStyle=orthogonalEdgeStyle;rounded=0;orthogonalLoop=1;jettySize=auto;html=1;entryX=1;entryY=0.5;entryDx=0;entryDy=0;endArrow=classic;endFill=1;dashed=1;" parent="1" source="1rJ9CaBwOhFMW-6hmWRg-50" target="1rJ9CaBwOhFMW-6hmWRg-45" edge="1">
          <mxGeometry relative="1" as="geometry">
            <Array as="points">
              <mxPoint x="380" y="570" />
            </Array>
          </mxGeometry>
        </mxCell>
        <mxCell id="1rJ9CaBwOhFMW-6hmWRg-96" style="edgeStyle=orthogonalEdgeStyle;rounded=0;orthogonalLoop=1;jettySize=auto;html=1;entryX=1;entryY=0.5;entryDx=0;entryDy=0;endArrow=classic;endFill=1;exitX=0.5;exitY=0;exitDx=0;exitDy=0;" parent="1" source="1rJ9CaBwOhFMW-6hmWRg-50" target="1rJ9CaBwOhFMW-6hmWRg-84" edge="1">
          <mxGeometry relative="1" as="geometry" />
        </mxCell>
        <mxCell id="1rJ9CaBwOhFMW-6hmWRg-50" value="Private Storage Repository" style="rounded=0;whiteSpace=wrap;html=1;" parent="1" vertex="1">
          <mxGeometry x="320" y="260.2" width="120" height="60" as="geometry" />
        </mxCell>
        <mxCell id="1rJ9CaBwOhFMW-6hmWRg-58" style="edgeStyle=orthogonalEdgeStyle;rounded=0;orthogonalLoop=1;jettySize=auto;html=1;entryX=0;entryY=0.5;entryDx=0;entryDy=0;endArrow=classic;endFill=1;dashed=1;" parent="1" source="1rJ9CaBwOhFMW-6hmWRg-53" target="1rJ9CaBwOhFMW-6hmWRg-57" edge="1">
          <mxGeometry relative="1" as="geometry">
            <Array as="points">
              <mxPoint x="-220" y="870" />
            </Array>
          </mxGeometry>
        </mxCell>
        <mxCell id="1rJ9CaBwOhFMW-6hmWRg-61" style="edgeStyle=orthogonalEdgeStyle;rounded=0;orthogonalLoop=1;jettySize=auto;html=1;endArrow=diamond;endFill=1;" parent="1" source="1rJ9CaBwOhFMW-6hmWRg-53" target="1rJ9CaBwOhFMW-6hmWRg-46" edge="1">
          <mxGeometry relative="1" as="geometry" />
        </mxCell>
        <mxCell id="1rJ9CaBwOhFMW-6hmWRg-53" value="Organisation" style="rounded=0;whiteSpace=wrap;html=1;" parent="1" vertex="1">
          <mxGeometry x="-280" y="260.2" width="120" height="60" as="geometry" />
        </mxCell>
        <mxCell id="1rJ9CaBwOhFMW-6hmWRg-59" style="edgeStyle=orthogonalEdgeStyle;rounded=0;orthogonalLoop=1;jettySize=auto;html=1;entryX=1;entryY=0.5;entryDx=0;entryDy=0;dashed=1;endArrow=classic;endFill=1;" parent="1" source="1rJ9CaBwOhFMW-6hmWRg-55" target="1rJ9CaBwOhFMW-6hmWRg-57" edge="1">
          <mxGeometry relative="1" as="geometry">
            <Array as="points">
              <mxPoint x="650" y="870" />
            </Array>
          </mxGeometry>
        </mxCell>
        <mxCell id="1rJ9CaBwOhFMW-6hmWRg-62" style="edgeStyle=orthogonalEdgeStyle;rounded=0;orthogonalLoop=1;jettySize=auto;html=1;entryX=1;entryY=0.5;entryDx=0;entryDy=0;endArrow=diamond;endFill=1;" parent="1" source="1rJ9CaBwOhFMW-6hmWRg-55" target="1rJ9CaBwOhFMW-6hmWRg-50" edge="1">
          <mxGeometry relative="1" as="geometry" />
        </mxCell>
        <mxCell id="1rJ9CaBwOhFMW-6hmWRg-55" value="Individual" style="rounded=0;whiteSpace=wrap;html=1;" parent="1" vertex="1">
          <mxGeometry x="590" y="260.2" width="120" height="60" as="geometry" />
        </mxCell>
        <mxCell id="1rJ9CaBwOhFMW-6hmWRg-65" style="edgeStyle=orthogonalEdgeStyle;rounded=0;orthogonalLoop=1;jettySize=auto;html=1;endArrow=classic;endFill=1;" parent="1" source="1rJ9CaBwOhFMW-6hmWRg-57" target="1rJ9CaBwOhFMW-6hmWRg-64" edge="1">
          <mxGeometry relative="1" as="geometry" />
        </mxCell>
        <mxCell id="1rJ9CaBwOhFMW-6hmWRg-70" style="edgeStyle=orthogonalEdgeStyle;rounded=0;orthogonalLoop=1;jettySize=auto;html=1;entryX=0.5;entryY=0;entryDx=0;entryDy=0;endArrow=classic;endFill=1;" parent="1" source="1rJ9CaBwOhFMW-6hmWRg-57" target="1rJ9CaBwOhFMW-6hmWRg-68" edge="1">
          <mxGeometry relative="1" as="geometry" />
        </mxCell>
        <mxCell id="1rJ9CaBwOhFMW-6hmWRg-80" style="edgeStyle=orthogonalEdgeStyle;rounded=0;orthogonalLoop=1;jettySize=auto;html=1;entryX=0.5;entryY=1;entryDx=0;entryDy=0;endArrow=classic;endFill=1;" parent="1" source="1rJ9CaBwOhFMW-6hmWRg-57" target="1rJ9CaBwOhFMW-6hmWRg-79" edge="1">
          <mxGeometry relative="1" as="geometry" />
        </mxCell>
        <mxCell id="1rJ9CaBwOhFMW-6hmWRg-57" value="&amp;lt;&amp;lt; Interface &amp;gt;&amp;gt; Identity" style="rounded=0;whiteSpace=wrap;html=1;" parent="1" vertex="1">
          <mxGeometry x="140" y="840" width="120" height="60" as="geometry" />
        </mxCell>
        <mxCell id="1rJ9CaBwOhFMW-6hmWRg-67" style="edgeStyle=orthogonalEdgeStyle;rounded=0;orthogonalLoop=1;jettySize=auto;html=1;endArrow=classic;endFill=1;dashed=1;entryX=0;entryY=0.5;entryDx=0;entryDy=0;" parent="1" source="1rJ9CaBwOhFMW-6hmWRg-64" target="1rJ9CaBwOhFMW-6hmWRg-66" edge="1">
          <mxGeometry relative="1" as="geometry" />
        </mxCell>
        <mxCell id="1rJ9CaBwOhFMW-6hmWRg-64" value="Single Sig Wallet" style="rounded=0;whiteSpace=wrap;html=1;" parent="1" vertex="1">
          <mxGeometry x="40.00000000000001" y="960" width="120" height="60" as="geometry" />
        </mxCell>
        <mxCell id="1rJ9CaBwOhFMW-6hmWRg-75" style="edgeStyle=orthogonalEdgeStyle;rounded=0;orthogonalLoop=1;jettySize=auto;html=1;endArrow=classic;endFill=1;" parent="1" source="1rJ9CaBwOhFMW-6hmWRg-66" edge="1">
          <mxGeometry relative="1" as="geometry">
            <mxPoint x="200" y="1330" as="targetPoint" />
          </mxGeometry>
        </mxCell>
        <mxCell id="1rJ9CaBwOhFMW-6hmWRg-66" value="&amp;lt;&amp;lt; Interface &amp;gt;&amp;gt;&lt;br&gt;PK Address" style="rounded=0;whiteSpace=wrap;html=1;" parent="1" vertex="1">
          <mxGeometry x="140" y="1200" width="120" height="60" as="geometry" />
        </mxCell>
        <mxCell id="1rJ9CaBwOhFMW-6hmWRg-72" style="edgeStyle=orthogonalEdgeStyle;rounded=0;orthogonalLoop=1;jettySize=auto;html=1;dashed=1;endArrow=classic;endFill=1;" parent="1" source="1rJ9CaBwOhFMW-6hmWRg-68" target="1rJ9CaBwOhFMW-6hmWRg-71" edge="1">
          <mxGeometry relative="1" as="geometry" />
        </mxCell>
        <mxCell id="1rJ9CaBwOhFMW-6hmWRg-68" value="Multi-Party Wallet" style="rounded=0;whiteSpace=wrap;html=1;" parent="1" vertex="1">
          <mxGeometry x="240" y="960" width="120" height="60" as="geometry" />
        </mxCell>
        <mxCell id="1rJ9CaBwOhFMW-6hmWRg-73" style="edgeStyle=orthogonalEdgeStyle;rounded=0;orthogonalLoop=1;jettySize=auto;html=1;entryX=1;entryY=0.5;entryDx=0;entryDy=0;endArrow=classic;endFill=1;" parent="1" source="1rJ9CaBwOhFMW-6hmWRg-71" target="1rJ9CaBwOhFMW-6hmWRg-66" edge="1">
          <mxGeometry relative="1" as="geometry" />
        </mxCell>
        <mxCell id="1rJ9CaBwOhFMW-6hmWRg-71" value="&amp;lt;&amp;lt; interface &amp;gt;&amp;gt; &amp;nbsp; &amp;nbsp;Multi-Signatures" style="rounded=0;whiteSpace=wrap;html=1;" parent="1" vertex="1">
          <mxGeometry x="240" y="1084.5" width="120" height="60" as="geometry" />
        </mxCell>
        <mxCell id="1rJ9CaBwOhFMW-6hmWRg-78" value="" style="outlineConnect=0;fontColor=#232F3E;gradientColor=none;fillColor=#C7131F;strokeColor=none;dashed=0;verticalLabelPosition=bottom;verticalAlign=top;align=center;html=1;fontSize=12;fontStyle=0;aspect=fixed;pointerEvents=1;shape=mxgraph.aws4.data_encryption_key;" parent="1" vertex="1">
          <mxGeometry x="169" y="1332" width="62" height="78" as="geometry" />
        </mxCell>
        <mxCell id="1rJ9CaBwOhFMW-6hmWRg-82" style="edgeStyle=orthogonalEdgeStyle;rounded=0;orthogonalLoop=1;jettySize=auto;html=1;entryX=0.5;entryY=1;entryDx=0;entryDy=0;endArrow=classic;endFill=1;" parent="1" source="1rJ9CaBwOhFMW-6hmWRg-79" target="1rJ9CaBwOhFMW-6hmWRg-45" edge="1">
          <mxGeometry relative="1" as="geometry" />
        </mxCell>
        <mxCell id="1rJ9CaBwOhFMW-6hmWRg-79" value="Authentication" style="rounded=0;whiteSpace=wrap;html=1;" parent="1" vertex="1">
          <mxGeometry x="140" y="690" width="120" height="60" as="geometry" />
        </mxCell>
        <mxCell id="1rJ9CaBwOhFMW-6hmWRg-88" style="edgeStyle=orthogonalEdgeStyle;rounded=0;orthogonalLoop=1;jettySize=auto;html=1;endArrow=classic;endFill=1;entryX=0.5;entryY=1;entryDx=0;entryDy=0;strokeColor=none;dashed=1;" parent="1" source="1rJ9CaBwOhFMW-6hmWRg-84" target="1rJ9CaBwOhFMW-6hmWRg-87" edge="1">
          <mxGeometry relative="1" as="geometry">
            <mxPoint x="210" y="120" as="targetPoint" />
          </mxGeometry>
        </mxCell>
        <mxCell id="1rJ9CaBwOhFMW-6hmWRg-95" style="edgeStyle=orthogonalEdgeStyle;rounded=0;orthogonalLoop=1;jettySize=auto;html=1;entryX=0.5;entryY=0;entryDx=0;entryDy=0;endArrow=classic;endFill=1;dashed=1;" parent="1" source="1rJ9CaBwOhFMW-6hmWRg-84" target="1rJ9CaBwOhFMW-6hmWRg-87" edge="1">
          <mxGeometry relative="1" as="geometry" />
        </mxCell>
        <mxCell id="1rJ9CaBwOhFMW-6hmWRg-97" style="edgeStyle=orthogonalEdgeStyle;rounded=0;orthogonalLoop=1;jettySize=auto;html=1;endArrow=classic;endFill=1;exitX=0.5;exitY=0;exitDx=0;exitDy=0;startArrow=none;startFill=0;" parent="1" source="1rJ9CaBwOhFMW-6hmWRg-84" target="1rJ9CaBwOhFMW-6hmWRg-38" edge="1">
          <mxGeometry relative="1" as="geometry">
            <Array as="points">
              <mxPoint x="210" y="70" />
              <mxPoint x="31" y="70" />
            </Array>
          </mxGeometry>
        </mxCell>
        <mxCell id="1rJ9CaBwOhFMW-6hmWRg-98" style="edgeStyle=orthogonalEdgeStyle;rounded=0;orthogonalLoop=1;jettySize=auto;html=1;endArrow=classic;endFill=1;" parent="1" source="1rJ9CaBwOhFMW-6hmWRg-84" target="1rJ9CaBwOhFMW-6hmWRg-27" edge="1">
          <mxGeometry relative="1" as="geometry">
            <Array as="points">
              <mxPoint x="210" y="70" />
              <mxPoint x="391" y="70" />
            </Array>
          </mxGeometry>
        </mxCell>
        <mxCell id="1rJ9CaBwOhFMW-6hmWRg-100" style="edgeStyle=orthogonalEdgeStyle;rounded=0;orthogonalLoop=1;jettySize=auto;html=1;endArrow=classic;endFill=1;" parent="1" source="1rJ9CaBwOhFMW-6hmWRg-84" edge="1">
          <mxGeometry relative="1" as="geometry">
            <mxPoint x="210" y="-30" as="targetPoint" />
          </mxGeometry>
        </mxCell>
        <mxCell id="qLoFIc1B3SJw04P_gE9h-11" style="edgeStyle=orthogonalEdgeStyle;rounded=0;orthogonalLoop=1;jettySize=auto;html=1;startArrow=none;startFill=0;" edge="1" parent="1" source="1rJ9CaBwOhFMW-6hmWRg-84" target="qLoFIc1B3SJw04P_gE9h-9">
          <mxGeometry relative="1" as="geometry">
            <Array as="points">
              <mxPoint x="210" y="230" />
              <mxPoint x="270" y="230" />
            </Array>
          </mxGeometry>
        </mxCell>
        <mxCell id="1rJ9CaBwOhFMW-6hmWRg-84" value="Powergate API" style="rounded=0;whiteSpace=wrap;html=1;" parent="1" vertex="1">
          <mxGeometry x="150" y="140" width="120" height="60" as="geometry" />
        </mxCell>
        <mxCell id="qLoFIc1B3SJw04P_gE9h-8" style="edgeStyle=orthogonalEdgeStyle;rounded=0;orthogonalLoop=1;jettySize=auto;html=1;entryX=0.5;entryY=0;entryDx=0;entryDy=0;startArrow=none;startFill=0;" edge="1" parent="1" source="1rJ9CaBwOhFMW-6hmWRg-87" target="qLoFIc1B3SJw04P_gE9h-7">
          <mxGeometry relative="1" as="geometry" />
        </mxCell>
        <mxCell id="qLoFIc1B3SJw04P_gE9h-12" value="uses" style="edgeLabel;html=1;align=center;verticalAlign=middle;resizable=0;points=[];" vertex="1" connectable="0" parent="qLoFIc1B3SJw04P_gE9h-8">
          <mxGeometry x="-0.0647" y="4" relative="1" as="geometry">
            <mxPoint x="-4" as="offset" />
          </mxGeometry>
        </mxCell>
        <mxCell id="1rJ9CaBwOhFMW-6hmWRg-87" value="&amp;lt;&amp;lt; Interface &amp;gt;&amp;gt;&lt;br&gt;File Storage" style="rounded=0;whiteSpace=wrap;html=1;" parent="1" vertex="1">
          <mxGeometry x="90" y="260.2" width="120" height="60" as="geometry" />
        </mxCell>
        <mxCell id="1rJ9CaBwOhFMW-6hmWRg-99" value="IPFS (Hot Storage)" style="aspect=fixed;perimeter=ellipsePerimeter;html=1;align=center;shadow=0;dashed=0;spacingTop=3;image;image=img/lib/active_directory/database_cube.svg;" parent="1" vertex="1">
          <mxGeometry x="186" y="-110" width="45" height="50" as="geometry" />
        </mxCell>
        <mxCell id="qLoFIc1B3SJw04P_gE9h-7" value="&amp;lt;&amp;lt; Interface &amp;gt;&amp;gt;. &amp;nbsp;Store" style="rounded=0;whiteSpace=wrap;html=1;" vertex="1" parent="1">
          <mxGeometry x="90" y="380" width="120" height="60" as="geometry" />
        </mxCell>
        <mxCell id="qLoFIc1B3SJw04P_gE9h-10" style="edgeStyle=orthogonalEdgeStyle;rounded=0;orthogonalLoop=1;jettySize=auto;html=1;entryX=1;entryY=0.5;entryDx=0;entryDy=0;startArrow=none;startFill=0;dashed=1;" edge="1" parent="1" source="qLoFIc1B3SJw04P_gE9h-9" target="qLoFIc1B3SJw04P_gE9h-7">
          <mxGeometry relative="1" as="geometry" />
        </mxCell>
        <mxCell id="qLoFIc1B3SJw04P_gE9h-9" value="Bucket" style="outlineConnect=0;dashed=0;verticalLabelPosition=bottom;verticalAlign=top;align=center;html=1;shape=mxgraph.aws3.bucket;fillColor=#E05243;gradientColor=none;" vertex="1" parent="1">
          <mxGeometry x="240" y="379.25" width="60" height="61.5" as="geometry" />
        </mxCell>
      </root>
    </mxGraphModel>
  </diagram>
</mxfile>
